<svg width="179" height="22" viewBox="0 0 179 22" fill="none" xmlns="http://www.w3.org/2000/svg">
<path d="M19.091 12.824L19.343 17.64C18.9323 18.3307 18.3817 18.956 17.691 19.516C17.0003 20.076 16.1417 20.5333 15.115 20.888C14.0883 21.224 12.875 21.392 11.475 21.392C9.19767 21.3733 7.20033 20.9627 5.483 20.16C3.78433 19.3387 2.46833 18.172 1.535 16.66C0.601667 15.148 0.135 13.3187 0.135 11.172C0.135 9.08133 0.592333 7.28 1.507 5.768C2.42167 4.23733 3.72833 3.06133 5.427 2.24C7.14433 1.41867 9.18833 1.008 11.559 1.008C13.0523 1.008 14.387 1.15733 15.563 1.456C16.7577 1.75467 17.7563 2.11867 18.559 2.548L18.587 7.336H18.335C17.831 5.488 17.0097 4.172 15.871 3.388C14.7323 2.58533 13.3977 2.184 11.867 2.184C10.3737 2.184 9.095 2.548 8.031 3.276C6.967 4.004 6.14567 5.03067 5.567 6.356C4.98833 7.68133 4.699 9.268 4.699 11.116C4.699 12.964 4.96967 14.56 5.511 15.904C6.071 17.248 6.855 18.2933 7.863 19.04C8.88967 19.7867 10.0937 20.1787 11.475 20.216C12.9123 20.216 14.1257 19.9827 15.115 19.516C16.1043 19.0493 16.8977 18.2747 17.495 17.192C18.111 16.1093 18.5683 14.6533 18.867 12.824H19.091ZM38.9507 4.2V21H34.9467V4.2H38.9507ZM27.5547 4.2V21H23.5227V4.2H27.5547ZM35.1707 12.068V13.188H27.3027V12.068H35.1707ZM23.6067 19.236V21H21.6747V20.72C21.6747 20.72 21.7213 20.72 21.8147 20.72C21.9267 20.72 21.992 20.72 22.0107 20.72C22.4213 20.72 22.776 20.58 23.0747 20.3C23.3733 20.0013 23.5227 19.6467 23.5227 19.236H23.6067ZM27.4987 19.236H27.5547C27.5733 19.6467 27.732 20.0013 28.0307 20.3C28.3293 20.58 28.684 20.72 29.0947 20.72C29.0947 20.72 29.1413 20.72 29.2347 20.72C29.3467 20.72 29.4027 20.72 29.4027 20.72V21H27.4987V19.236ZM27.4987 5.964V4.2H29.4027V4.48C29.4027 4.48 29.3467 4.48 29.2347 4.48C29.1413 4.48 29.0947 4.48 29.0947 4.48C28.684 4.48 28.3293 4.62 28.0307 4.9C27.732 5.18 27.5733 5.53467 27.5547 5.964H27.4987ZM23.6067 5.964H23.5227C23.5227 5.53467 23.3733 5.18 23.0747 4.9C22.776 4.62 22.4213 4.48 22.0107 4.48C21.992 4.48 21.9267 4.48 21.8147 4.48C21.7213 4.48 21.6747 4.48 21.6747 4.48V4.2H23.6067V5.964ZM35.0027 19.236V21H33.0987V20.72C33.0987 20.72 33.1453 20.72 33.2387 20.72C33.3507 20.72 33.4067 20.72 33.4067 20.72C33.8173 20.72 34.172 20.58 34.4707 20.3C34.7693 20.0013 34.9187 19.6467 34.9187 19.236H35.0027ZM38.8667 19.236H38.9507C38.9693 19.6467 39.1187 20.0013 39.3987 20.3C39.6973 20.58 40.0613 20.72 40.4907 20.72C40.4907 20.72 40.5373 20.72 40.6307 20.72C40.7427 20.72 40.7987 20.72 40.7987 20.72V21H38.8667V19.236ZM38.8947 5.964V4.2H40.8267V4.48C40.8267 4.48 40.7707 4.48 40.6587 4.48C40.5467 4.48 40.4907 4.48 40.4907 4.48C40.0613 4.48 39.6973 4.62 39.3987 4.9C39.1187 5.18 38.9787 5.53467 38.9787 5.964H38.8947ZM35.0027 5.964H34.9187C34.9187 5.53467 34.7693 5.18 34.4707 4.9C34.172 4.62 33.8173 4.48 33.4067 4.48C33.4067 4.48 33.3507 4.48 33.2387 4.48C33.1453 4.48 33.0987 4.48 33.0987 4.48V4.2H35.0027V5.964ZM50.682 3.444L58.97 20.86H54.238L49.03 8.568L50.682 3.444ZM45.418 19.152C45.2127 19.656 45.2407 20.048 45.502 20.328C45.7633 20.5893 46.0527 20.72 46.37 20.72H46.594V21H40.994V20.72C40.994 20.72 41.0313 20.72 41.106 20.72C41.1807 20.72 41.218 20.72 41.218 20.72C41.5913 20.72 41.9833 20.608 42.394 20.384C42.8047 20.1413 43.1407 19.7307 43.402 19.152H45.418ZM50.682 3.444L50.738 6.804L44.662 20.916H42.59L49.142 6.832C49.1793 6.72 49.2633 6.524 49.394 6.244C49.5247 5.94533 49.6647 5.61867 49.814 5.264C49.9633 4.89067 50.1033 4.54533 50.234 4.228C50.3647 3.892 50.4393 3.63067 50.458 3.444H50.682ZM53.118 15.512V16.604H45.978V15.512H53.118ZM53.538 19.152H58.158C58.438 19.7307 58.7833 20.1413 59.194 20.384C59.6047 20.608 59.9967 20.72 60.37 20.72C60.37 20.72 60.4073 20.72 60.482 20.72C60.5567 20.72 60.594 20.72 60.594 20.72V21H52.362V20.72H52.586C52.9033 20.72 53.1927 20.5893 53.454 20.328C53.7153 20.048 53.7433 19.656 53.538 19.152ZM66.7135 4.2V21H62.6815V4.2H66.7135ZM62.7655 19.236V21H60.7215V20.72C60.7215 20.72 60.7775 20.72 60.8895 20.72C61.0015 20.72 61.0669 20.72 61.0855 20.72C61.5149 20.72 61.8882 20.58 62.2055 20.3C62.5229 20.0013 62.6815 19.6467 62.6815 19.236H62.7655ZM66.6575 19.236H66.7135C66.7322 19.6467 66.8909 20.0013 67.1895 20.3C67.5069 20.58 67.8895 20.72 68.3375 20.72C68.3375 20.72 68.3842 20.72 68.4775 20.72C68.5895 20.72 68.6549 20.72 68.6735 20.72V21H66.6575V19.236ZM66.6575 5.964V4.2H68.6735L68.6455 4.48C68.6455 4.48 68.5989 4.48 68.5055 4.48C68.4122 4.48 68.3562 4.48 68.3375 4.48C67.8895 4.48 67.5069 4.62 67.1895 4.9C66.8909 5.18 66.7322 5.53467 66.7135 5.964H66.6575ZM62.7655 5.964H62.6815C62.6815 5.53467 62.5229 5.18 62.2055 4.9C61.8882 4.62 61.5055 4.48 61.0575 4.48C61.0575 4.48 61.0015 4.48 60.8895 4.48C60.7775 4.48 60.7215 4.48 60.7215 4.48V4.2H62.7655V5.964ZM72.1613 3.808L88.5973 18.256L88.8773 21.364L72.4693 6.916L72.1613 3.808ZM72.2733 19.292V21H70.2013V20.72C70.2013 20.72 70.2759 20.72 70.4253 20.72C70.5746 20.72 70.6493 20.72 70.6493 20.72C71.0786 20.72 71.4426 20.5893 71.7413 20.328C72.0399 20.048 72.1893 19.7027 72.1893 19.292H72.2733ZM76.0253 19.292C76.0439 19.7027 76.2026 20.048 76.5013 20.328C76.7999 20.5893 77.1546 20.72 77.5653 20.72C77.5653 20.72 77.6399 20.72 77.7893 20.72C77.9573 20.72 78.0413 20.72 78.0413 20.72V21H75.9693V19.292H76.0253ZM72.1613 3.808L76.0253 8.008V21H72.1893V7C72.1893 6.048 72.1426 5.28267 72.0493 4.704C71.9559 4.10667 71.9093 3.808 71.9093 3.808H72.1613ZM88.8493 4.2V18.088C88.8493 18.7413 88.8679 19.32 88.9053 19.824C88.9613 20.3093 89.0079 20.692 89.0453 20.972C89.1013 21.2333 89.1293 21.364 89.1293 21.364H88.8773L85.0133 16.912V4.2H88.8493ZM88.7653 5.908V4.2H90.8653V4.48C90.8653 4.48 90.7813 4.48 90.6133 4.48C90.4639 4.48 90.3893 4.48 90.3893 4.48C89.9786 4.48 89.6146 4.62 89.2973 4.9C88.9986 5.16133 88.8493 5.49733 88.8493 5.908H88.7653ZM85.0133 5.908C84.9946 5.49733 84.8359 5.16133 84.5373 4.9C84.2573 4.62 83.9026 4.48 83.4733 4.48C83.4733 4.48 83.3893 4.48 83.2213 4.48C83.0719 4.48 82.9973 4.48 82.9973 4.48V4.2H85.0693V5.908H85.0133ZM109.886 1.484V21H105.686V1.484H109.886ZM116.746 1.372V2.548H98.8256V1.372H116.746ZM116.746 2.464V5.768L116.466 5.74V5.432C116.466 4.55467 116.204 3.864 115.682 3.36C115.178 2.83733 114.487 2.56667 113.61 2.548V2.464H116.746ZM116.746 0.867999V1.68L113.33 1.372C113.74 1.372 114.17 1.344 114.618 1.288C115.084 1.232 115.514 1.16667 115.906 1.092C116.298 1.01733 116.578 0.942666 116.746 0.867999ZM105.77 18.956V21H103.53V20.72C103.53 20.72 103.586 20.72 103.698 20.72C103.828 20.72 103.894 20.72 103.894 20.72C104.379 20.72 104.79 20.552 105.126 20.216C105.48 19.8613 105.667 19.4413 105.686 18.956H105.77ZM109.802 18.956H109.886C109.904 19.4413 110.082 19.8613 110.418 20.216C110.772 20.552 111.192 20.72 111.678 20.72C111.678 20.72 111.734 20.72 111.846 20.72C111.976 20.72 112.042 20.72 112.042 20.72V21H109.802V18.956ZM101.934 2.464V2.548C101.075 2.56667 100.384 2.83733 99.8616 3.36C99.3576 3.864 99.1056 4.55467 99.1056 5.432V5.74L98.8256 5.768V2.464H101.934ZM98.8256 0.867999C99.0123 0.942666 99.2923 1.01733 99.6656 1.092C100.058 1.16667 100.487 1.232 100.954 1.288C101.42 1.344 101.85 1.372 102.242 1.372L98.8256 1.68V0.867999ZM123.857 4.2H126.881C127.647 4.2 128.393 4.284 129.121 4.452C129.849 4.60133 130.503 4.85333 131.081 5.208C131.66 5.544 132.117 6.01067 132.453 6.608C132.808 7.18667 132.985 7.91467 132.985 8.792C132.985 9.44533 132.845 10.0987 132.565 10.752C132.304 11.3867 131.884 11.9373 131.305 12.404C130.745 12.8707 130.008 13.1787 129.093 13.328C129.635 13.496 130.148 13.8227 130.633 14.308C131.137 14.7933 131.529 15.2507 131.809 15.68C131.884 15.8293 132.015 16.072 132.201 16.408C132.388 16.7253 132.621 17.0987 132.901 17.528C133.2 17.9387 133.508 18.368 133.825 18.816C134.199 19.32 134.525 19.712 134.805 19.992C135.085 20.2533 135.375 20.44 135.673 20.552C135.972 20.664 136.317 20.72 136.709 20.72V21H134.357C133.349 21 132.491 20.9253 131.781 20.776C131.091 20.6267 130.484 20.356 129.961 19.964C129.457 19.5533 128.991 19.0027 128.561 18.312C128.393 18.0693 128.216 17.78 128.029 17.444C127.843 17.0893 127.656 16.7347 127.469 16.38C127.283 16.0253 127.115 15.68 126.965 15.344C126.835 15.008 126.741 14.728 126.685 14.504C126.443 13.9067 126.163 13.4773 125.845 13.216C125.547 12.936 125.267 12.796 125.005 12.796V12.544C125.005 12.544 125.071 12.544 125.201 12.544C125.332 12.544 125.5 12.544 125.705 12.544C126.097 12.544 126.48 12.4787 126.853 12.348C127.245 12.1987 127.6 11.928 127.917 11.536C128.235 11.1253 128.468 10.528 128.617 9.744C128.655 9.632 128.683 9.47333 128.701 9.268C128.739 9.06267 128.748 8.82933 128.729 8.568C128.692 7.87733 128.561 7.32667 128.337 6.916C128.132 6.48667 127.871 6.16933 127.553 5.964C127.236 5.74 126.909 5.59067 126.573 5.516C126.256 5.42267 125.976 5.376 125.733 5.376C125.379 5.35733 125.052 5.35733 124.753 5.376C124.473 5.376 124.259 5.36667 124.109 5.348C124.091 5.348 124.063 5.25467 124.025 5.068C123.988 4.86267 123.951 4.66667 123.913 4.48C123.876 4.29333 123.857 4.2 123.857 4.2ZM124.137 4.2V21H120.077V4.2H124.137ZM120.161 19.236L120.273 21H118.257V20.72C118.276 20.72 118.323 20.72 118.397 20.72C118.491 20.72 118.556 20.72 118.593 20.72C119.004 20.72 119.349 20.58 119.629 20.3C119.928 20.0013 120.087 19.6467 120.105 19.236H120.161ZM120.161 5.936H120.105C120.087 5.50667 119.928 5.16133 119.629 4.9C119.349 4.62 119.013 4.48 118.621 4.48C118.565 4.48 118.491 4.48 118.397 4.48C118.323 4.48 118.276 4.48 118.257 4.48V4.2H120.273L120.161 5.936ZM124.081 19.236H124.137C124.137 19.7027 124.296 20.0667 124.613 20.328C124.949 20.5893 125.304 20.72 125.677 20.72C125.677 20.72 125.715 20.72 125.789 20.72C125.864 20.72 125.92 20.72 125.957 20.72V21H123.941L124.081 19.236ZM144.991 3.444L153.279 20.86H148.547L143.339 8.568L144.991 3.444ZM139.727 19.152C139.521 19.656 139.549 20.048 139.811 20.328C140.072 20.5893 140.361 20.72 140.679 20.72H140.903V21H135.303V20.72C135.303 20.72 135.34 20.72 135.415 20.72C135.489 20.72 135.527 20.72 135.527 20.72C135.9 20.72 136.292 20.608 136.703 20.384C137.113 20.1413 137.449 19.7307 137.711 19.152H139.727ZM144.991 3.444L145.047 6.804L138.971 20.916H136.899L143.451 6.832C143.488 6.72 143.572 6.524 143.703 6.244C143.833 5.94533 143.973 5.61867 144.123 5.264C144.272 4.89067 144.412 4.54533 144.543 4.228C144.673 3.892 144.748 3.63067 144.767 3.444H144.991ZM147.427 15.512V16.604H140.287V15.512H147.427ZM147.847 19.152H152.467C152.747 19.7307 153.092 20.1413 153.503 20.384C153.913 20.608 154.305 20.72 154.679 20.72C154.679 20.72 154.716 20.72 154.791 20.72C154.865 20.72 154.903 20.72 154.903 20.72V21H146.671V20.72H146.895C147.212 20.72 147.501 20.5893 147.763 20.328C148.024 20.048 148.052 19.656 147.847 19.152ZM161.022 4.2V21H156.99V4.2H161.022ZM157.074 19.236V21H155.03V20.72C155.03 20.72 155.086 20.72 155.198 20.72C155.31 20.72 155.375 20.72 155.394 20.72C155.823 20.72 156.197 20.58 156.514 20.3C156.831 20.0013 156.99 19.6467 156.99 19.236H157.074ZM160.966 19.236H161.022C161.041 19.6467 161.199 20.0013 161.498 20.3C161.815 20.58 162.198 20.72 162.646 20.72C162.646 20.72 162.693 20.72 162.786 20.72C162.898 20.72 162.963 20.72 162.982 20.72V21H160.966V19.236ZM160.966 5.964V4.2H162.982L162.954 4.48C162.954 4.48 162.907 4.48 162.814 4.48C162.721 4.48 162.665 4.48 162.646 4.48C162.198 4.48 161.815 4.62 161.498 4.9C161.199 5.18 161.041 5.53467 161.022 5.964H160.966ZM157.074 5.964H156.99C156.99 5.53467 156.831 5.18 156.514 4.9C156.197 4.62 155.814 4.48 155.366 4.48C155.366 4.48 155.31 4.48 155.198 4.48C155.086 4.48 155.03 4.48 155.03 4.48V4.2H157.074V5.964ZM170.618 4.2V21H166.586V4.2H170.618ZM177.142 19.88L177.814 21H170.562V19.88H177.142ZM178.99 15.848L177.898 21H173.054L173.922 19.88C174.724 19.88 175.434 19.7213 176.05 19.404C176.684 19.068 177.226 18.6013 177.674 18.004C178.122 17.388 178.467 16.6693 178.71 15.848H178.99ZM166.642 19.236L166.782 21H164.71V20.72C164.71 20.72 164.766 20.72 164.878 20.72C164.99 20.72 165.055 20.72 165.074 20.72C165.484 20.72 165.83 20.58 166.11 20.3C166.408 20.0013 166.567 19.6467 166.586 19.236H166.642ZM170.562 5.964V4.2H172.494V4.48C172.475 4.48 172.41 4.48 172.298 4.48C172.204 4.48 172.158 4.48 172.158 4.48C171.747 4.48 171.392 4.62 171.094 4.9C170.795 5.18 170.636 5.53467 170.618 5.964H170.562ZM166.642 5.964H166.586C166.567 5.53467 166.408 5.18 166.11 4.9C165.811 4.62 165.456 4.48 165.046 4.48C165.027 4.48 164.962 4.48 164.85 4.48C164.756 4.48 164.71 4.48 164.71 4.48V4.2H166.642V5.964Z" fill="#EEEEEE"/>
</svg>
