<svg width="26" height="26" viewBox="0 0 26 26" fill="none" xmlns="http://www.w3.org/2000/svg">
<path d="M13.0003 17.5992C6.28029 17.5992 5.09029 10.9025 4.88029 5.58951C4.82079 4.11251 4.79163 3.37284 5.34696 2.69034C5.90113 2.00667 6.56496 1.89467 7.89379 1.67067C9.58175 1.39403 11.2898 1.25861 13.0003 1.26584C15.0816 1.26584 16.7955 1.449 18.1068 1.67067C19.4356 1.89467 20.0995 2.00667 20.6548 2.69034C21.2101 3.37401 21.1798 4.11251 21.1215 5.58951C20.9115 10.9013 19.7215 17.5992 13.0015 17.5992H13.0003Z" stroke="#EEEEEE" stroke-width="1.5"/>
<path d="M13 17.5992V21.0992" stroke="#EEEEEE" stroke-width="1.5" stroke-linecap="round"/>
<path d="M17.0837 24.5992H8.91699L9.31366 22.6205C9.3665 22.3561 9.50928 22.1182 9.71772 21.9472C9.92615 21.7762 10.1874 21.6827 10.457 21.6825H15.5437C15.8133 21.6827 16.0745 21.7762 16.2829 21.9472C16.4914 22.1182 16.6341 22.3561 16.687 22.6205L17.0837 24.5992Z" stroke="#EEEEEE" stroke-width="1.5" stroke-linecap="round" stroke-linejoin="round"/>
<path d="M21.1668 4.76581L22.274 5.13447C23.429 5.51947 24.0065 5.71197 24.3367 6.17047C24.6668 6.62897 24.6668 7.23797 24.6668 8.45481V8.53997C24.6668 9.54331 24.6668 10.0461 24.4253 10.4568C24.1838 10.8675 23.744 11.1113 22.8667 11.6001L19.4168 13.5158M4.8335 4.76581L3.72633 5.13447C2.57133 5.51947 1.99383 5.71197 1.66366 6.17047C1.3335 6.62897 1.3335 7.23914 1.3335 8.45481V8.53997C1.3335 9.54331 1.3335 10.0461 1.575 10.4568C1.8165 10.8675 2.25633 11.1113 3.13366 11.6001L6.5835 13.5158M12.0038 5.95931C12.4472 5.16247 12.6688 4.76581 13.0002 4.76581C13.3315 4.76581 13.5532 5.16247 13.9965 5.95931L14.1108 6.16464C14.2368 6.39097 14.2998 6.50297 14.3978 6.57764C14.497 6.65231 14.6195 6.68031 14.8645 6.73514L15.0862 6.78647C15.9472 6.98131 16.3777 7.07814 16.4803 7.40714C16.583 7.73731 16.289 8.08031 15.7022 8.76631L15.5505 8.94364C15.3837 9.13848 15.2997 9.23531 15.2623 9.35664C15.225 9.47798 15.2378 9.60747 15.2623 9.86764L15.2857 10.1045C15.3743 11.0203 15.4187 11.4788 15.1515 11.6818C14.8832 11.8848 14.4795 11.6993 13.6733 11.3283L13.4657 11.2326C13.2358 11.1276 13.1215 11.0751 13.0002 11.0751C12.8788 11.0751 12.7645 11.1276 12.5347 11.2326L12.327 11.3283C11.5208 11.7005 11.1172 11.8848 10.8488 11.6818C10.5805 11.4788 10.626 11.0203 10.7147 10.1045L10.738 9.86764C10.7625 9.60747 10.7753 9.47798 10.738 9.35664C10.7007 9.23648 10.6167 9.13848 10.4498 8.94364L10.2982 8.76631C9.71133 8.08031 9.41733 7.73731 9.52 7.40714C9.62266 7.07814 10.0532 6.98131 10.9142 6.78647L11.1358 6.73514C11.3808 6.68031 11.5033 6.65347 11.6025 6.57764C11.7005 6.50297 11.7635 6.39097 11.8895 6.16464L12.0038 5.95931Z" stroke="#EEEEEE" stroke-width="1.5"/>
<path d="M20 24.5992H6" stroke="#EEEEEE" stroke-width="1.5" stroke-linecap="round"/>
</svg>
