<svg width="111" height="23" viewBox="0 0 111 23" fill="none" xmlns="http://www.w3.org/2000/svg">
<path d="M4.32593 11.8138L0 8.11557V16.5907L8.77037 22.8571L16 16.5907L13.2148 14.1766L8.77037 18.0289L4.32593 14.1766V11.8138Z" fill="#E4AD00"/>
<path d="M4.32593 8.68058L1.54074 6.26645L8.77037 0L16 6.26645L13.2148 8.68058L10.4296 6.26645V12.5329L8.77037 13.9711L7.11111 12.5329V6.26645L4.32593 8.68058Z" fill="#E4AD00"/>
<path d="M30.5455 11.8406L30.6715 14.2486C30.4662 14.5939 30.1908 14.9066 29.8455 15.1866C29.5002 15.4666 29.0708 15.6952 28.5575 15.8726C28.0442 16.0406 27.4375 16.1246 26.7375 16.1246C25.5988 16.1152 24.6002 15.9099 23.7415 15.5086C22.8922 15.0979 22.2342 14.5146 21.7675 13.7586C21.3008 13.0026 21.0675 12.0879 21.0675 11.0146C21.0675 9.96924 21.2962 9.06857 21.7535 8.31257C22.2108 7.54724 22.8642 6.95924 23.7135 6.54857C24.5722 6.13791 25.5942 5.93257 26.7795 5.93257C27.5262 5.93257 28.1935 6.00724 28.7815 6.15657C29.3788 6.30591 29.8782 6.48791 30.2795 6.70257L30.2935 9.09657H30.1675C29.9155 8.17257 29.5048 7.51457 28.9355 7.12257C28.3662 6.72124 27.6988 6.52057 26.9335 6.52057C26.1868 6.52057 25.5475 6.70257 25.0155 7.06657C24.4835 7.43057 24.0728 7.94391 23.7835 8.60657C23.4942 9.26924 23.3495 10.0626 23.3495 10.9866C23.3495 11.9106 23.4848 12.7086 23.7555 13.3806C24.0355 14.0526 24.4275 14.5752 24.9315 14.9486C25.4448 15.3219 26.0468 15.5179 26.7375 15.5366C27.4562 15.5366 28.0628 15.4199 28.5575 15.1866C29.0522 14.9532 29.4488 14.5659 29.7475 14.0246C30.0555 13.4832 30.2842 12.7552 30.4335 11.8406H30.5455ZM40.4753 7.52857V15.9286H38.4733V7.52857H40.4753ZM34.7773 7.52857V15.9286H32.7613V7.52857H34.7773ZM38.5853 11.4626V12.0226H34.6513V11.4626H38.5853ZM32.8033 15.0466V15.9286H31.8373V15.7886C31.8373 15.7886 31.8607 15.7886 31.9073 15.7886C31.9633 15.7886 31.996 15.7886 32.0053 15.7886C32.2107 15.7886 32.388 15.7186 32.5373 15.5786C32.6867 15.4292 32.7613 15.2519 32.7613 15.0466H32.8033ZM34.7493 15.0466H34.7773C34.7867 15.2519 34.866 15.4292 35.0153 15.5786C35.1647 15.7186 35.342 15.7886 35.5473 15.7886C35.5473 15.7886 35.5707 15.7886 35.6173 15.7886C35.6733 15.7886 35.7013 15.7886 35.7013 15.7886V15.9286H34.7493V15.0466ZM34.7493 8.41057V7.52857H35.7013V7.66857C35.7013 7.66857 35.6733 7.66857 35.6173 7.66857C35.5707 7.66857 35.5473 7.66857 35.5473 7.66857C35.342 7.66857 35.1647 7.73857 35.0153 7.87857C34.866 8.01857 34.7867 8.19591 34.7773 8.41057H34.7493ZM32.8033 8.41057H32.7613C32.7613 8.19591 32.6867 8.01857 32.5373 7.87857C32.388 7.73857 32.2107 7.66857 32.0053 7.66857C31.996 7.66857 31.9633 7.66857 31.9073 7.66857C31.8607 7.66857 31.8373 7.66857 31.8373 7.66857V7.52857H32.8033V8.41057ZM38.5013 15.0466V15.9286H37.5493V15.7886C37.5493 15.7886 37.5727 15.7886 37.6193 15.7886C37.6753 15.7886 37.7033 15.7886 37.7033 15.7886C37.9087 15.7886 38.086 15.7186 38.2353 15.5786C38.3847 15.4292 38.4593 15.2519 38.4593 15.0466H38.5013ZM40.4333 15.0466H40.4753C40.4847 15.2519 40.5593 15.4292 40.6993 15.5786C40.8487 15.7186 41.0307 15.7886 41.2453 15.7886C41.2453 15.7886 41.2687 15.7886 41.3153 15.7886C41.3713 15.7886 41.3993 15.7886 41.3993 15.7886V15.9286H40.4333V15.0466ZM40.4473 8.41057V7.52857H41.4133V7.66857C41.4133 7.66857 41.3853 7.66857 41.3293 7.66857C41.2733 7.66857 41.2453 7.66857 41.2453 7.66857C41.0307 7.66857 40.8487 7.73857 40.6993 7.87857C40.5593 8.01857 40.4893 8.19591 40.4893 8.41057H40.4473ZM38.5013 8.41057H38.4593C38.4593 8.19591 38.3847 8.01857 38.2353 7.87857C38.086 7.73857 37.9087 7.66857 37.7033 7.66857C37.7033 7.66857 37.6753 7.66857 37.6193 7.66857C37.5727 7.66857 37.5493 7.66857 37.5493 7.66857V7.52857H38.5013V8.41057ZM46.341 7.15057L50.485 15.8586H48.119L45.515 9.71257L46.341 7.15057ZM43.709 15.0046C43.6063 15.2566 43.6203 15.4526 43.751 15.5926C43.8817 15.7232 44.0263 15.7886 44.185 15.7886H44.297V15.9286H41.497V15.7886C41.497 15.7886 41.5157 15.7886 41.553 15.7886C41.5903 15.7886 41.609 15.7886 41.609 15.7886C41.7957 15.7886 41.9917 15.7326 42.197 15.6206C42.4023 15.4992 42.5703 15.2939 42.701 15.0046H43.709ZM46.341 7.15057L46.369 8.83057L43.331 15.8866H42.295L45.571 8.84457C45.5897 8.78857 45.6317 8.69057 45.697 8.55057C45.7623 8.40124 45.8323 8.23791 45.907 8.06057C45.9817 7.87391 46.0517 7.70124 46.117 7.54257C46.1823 7.37457 46.2197 7.24391 46.229 7.15057H46.341ZM47.559 13.1846V13.7306H43.989V13.1846H47.559ZM47.769 15.0046H50.079C50.219 15.2939 50.3917 15.4992 50.597 15.6206C50.8023 15.7326 50.9983 15.7886 51.185 15.7886C51.185 15.7886 51.2037 15.7886 51.241 15.7886C51.2783 15.7886 51.297 15.7886 51.297 15.7886V15.9286H47.181V15.7886H47.293C47.4517 15.7886 47.5963 15.7232 47.727 15.5926C47.8577 15.4526 47.8717 15.2566 47.769 15.0046ZM54.3568 7.52857V15.9286H52.3408V7.52857H54.3568ZM52.3828 15.0466V15.9286H51.3608V15.7886C51.3608 15.7886 51.3888 15.7886 51.4448 15.7886C51.5008 15.7886 51.5334 15.7886 51.5428 15.7886C51.7574 15.7886 51.9441 15.7186 52.1028 15.5786C52.2614 15.4292 52.3408 15.2519 52.3408 15.0466H52.3828ZM54.3288 15.0466H54.3568C54.3661 15.2519 54.4454 15.4292 54.5948 15.5786C54.7534 15.7186 54.9448 15.7886 55.1688 15.7886C55.1688 15.7886 55.1921 15.7886 55.2388 15.7886C55.2948 15.7886 55.3274 15.7886 55.3368 15.7886V15.9286H54.3288V15.0466ZM54.3288 8.41057V7.52857H55.3368L55.3228 7.66857C55.3228 7.66857 55.2994 7.66857 55.2528 7.66857C55.2061 7.66857 55.1781 7.66857 55.1688 7.66857C54.9448 7.66857 54.7534 7.73857 54.5948 7.87857C54.4454 8.01857 54.3661 8.19591 54.3568 8.41057H54.3288ZM52.3828 8.41057H52.3408C52.3408 8.19591 52.2614 8.01857 52.1028 7.87857C51.9441 7.73857 51.7528 7.66857 51.5288 7.66857C51.5288 7.66857 51.5008 7.66857 51.4448 7.66857C51.3888 7.66857 51.3608 7.66857 51.3608 7.66857V7.52857H52.3828V8.41057ZM57.0806 7.33257L65.2986 14.5566L65.4386 16.1106L57.2346 8.88657L57.0806 7.33257ZM57.1366 15.0746V15.9286H56.1006V15.7886C56.1006 15.7886 56.138 15.7886 56.2126 15.7886C56.2873 15.7886 56.3246 15.7886 56.3246 15.7886C56.5393 15.7886 56.7213 15.7232 56.8706 15.5926C57.02 15.4526 57.0946 15.2799 57.0946 15.0746H57.1366ZM59.0126 15.0746C59.022 15.2799 59.1013 15.4526 59.2506 15.5926C59.4 15.7232 59.5773 15.7886 59.7826 15.7886C59.7826 15.7886 59.82 15.7886 59.8946 15.7886C59.9786 15.7886 60.0206 15.7886 60.0206 15.7886V15.9286H58.9846V15.0746H59.0126ZM57.0806 7.33257L59.0126 9.43257V15.9286H57.0946V8.92857C57.0946 8.45257 57.0713 8.06991 57.0246 7.78057C56.978 7.48191 56.9546 7.33257 56.9546 7.33257H57.0806ZM65.4246 7.52857V14.4726C65.4246 14.7992 65.434 15.0886 65.4526 15.3406C65.4806 15.5832 65.504 15.7746 65.5226 15.9146C65.5506 16.0452 65.5646 16.1106 65.5646 16.1106H65.4386L63.5066 13.8846V7.52857H65.4246ZM65.3826 8.38257V7.52857H66.4326V7.66857C66.4326 7.66857 66.3906 7.66857 66.3066 7.66857C66.232 7.66857 66.1946 7.66857 66.1946 7.66857C65.9893 7.66857 65.8073 7.73857 65.6486 7.87857C65.4993 8.00924 65.4246 8.17724 65.4246 8.38257H65.3826ZM63.5066 8.38257C63.4973 8.17724 63.418 8.00924 63.2686 7.87857C63.1286 7.73857 62.9513 7.66857 62.7366 7.66857C62.7366 7.66857 62.6946 7.66857 62.6106 7.66857C62.536 7.66857 62.4986 7.66857 62.4986 7.66857V7.52857H63.5346V8.38257H63.5066ZM75.9428 6.17057V15.9286H73.8428V6.17057H75.9428ZM79.3728 6.11457V6.70257H70.4128V6.11457H79.3728ZM79.3728 6.66057V8.31257L79.2328 8.29857V8.14457C79.2328 7.70591 79.1021 7.36057 78.8408 7.10857C78.5888 6.84724 78.2435 6.71191 77.8048 6.70257V6.66057H79.3728ZM79.3728 5.86257V6.26857L77.6648 6.11457C77.8701 6.11457 78.0848 6.10057 78.3088 6.07257C78.5421 6.04457 78.7568 6.01191 78.9528 5.97457C79.1488 5.93724 79.2888 5.89991 79.3728 5.86257ZM73.8848 14.9066V15.9286H72.7648V15.7886C72.7648 15.7886 72.7928 15.7886 72.8488 15.7886C72.9141 15.7886 72.9468 15.7886 72.9468 15.7886C73.1895 15.7886 73.3948 15.7046 73.5628 15.5366C73.7401 15.3592 73.8335 15.1492 73.8428 14.9066H73.8848ZM75.9008 14.9066H75.9428C75.9521 15.1492 76.0408 15.3592 76.2088 15.5366C76.3861 15.7046 76.5961 15.7886 76.8388 15.7886C76.8388 15.7886 76.8668 15.7886 76.9228 15.7886C76.9881 15.7886 77.0208 15.7886 77.0208 15.7886V15.9286H75.9008V14.9066ZM71.9668 6.66057V6.70257C71.5375 6.71191 71.1921 6.84724 70.9308 7.10857C70.6788 7.36057 70.5528 7.70591 70.5528 8.14457V8.29857L70.4128 8.31257V6.66057H71.9668ZM70.4128 5.86257C70.5061 5.89991 70.6461 5.93724 70.8328 5.97457C71.0288 6.01191 71.2435 6.04457 71.4768 6.07257C71.7101 6.10057 71.9248 6.11457 72.1208 6.11457L70.4128 6.26857V5.86257ZM82.9287 7.52857H84.4407C84.8234 7.52857 85.1967 7.57057 85.5607 7.65457C85.9247 7.72924 86.2514 7.85524 86.5407 8.03257C86.83 8.20057 87.0587 8.43391 87.2267 8.73257C87.404 9.02191 87.4927 9.38591 87.4927 9.82457C87.4927 10.1512 87.4227 10.4779 87.2827 10.8046C87.152 11.1219 86.942 11.3972 86.6527 11.6306C86.3727 11.8639 86.004 12.0179 85.5467 12.0926C85.8174 12.1766 86.074 12.3399 86.3167 12.5826C86.5687 12.8252 86.7647 13.0539 86.9047 13.2686C86.942 13.3432 87.0074 13.4646 87.1007 13.6326C87.194 13.7912 87.3107 13.9779 87.4507 14.1926C87.6 14.3979 87.754 14.6126 87.9127 14.8366C88.0994 15.0886 88.2627 15.2846 88.4027 15.4246C88.5427 15.5552 88.6874 15.6486 88.8367 15.7046C88.986 15.7606 89.1587 15.7886 89.3547 15.7886V15.9286H88.1787C87.6747 15.9286 87.2454 15.8912 86.8907 15.8166C86.5454 15.7419 86.242 15.6066 85.9807 15.4106C85.7287 15.2052 85.4954 14.9299 85.2807 14.5846C85.1967 14.4632 85.108 14.3186 85.0147 14.1506C84.9214 13.9732 84.828 13.7959 84.7347 13.6186C84.6414 13.4412 84.5574 13.2686 84.4827 13.1006C84.4174 12.9326 84.3707 12.7926 84.3427 12.6806C84.2214 12.3819 84.0814 12.1672 83.9227 12.0366C83.7734 11.8966 83.6334 11.8266 83.5027 11.8266V11.7006C83.5027 11.7006 83.5354 11.7006 83.6007 11.7006C83.666 11.7006 83.75 11.7006 83.8527 11.7006C84.0487 11.7006 84.24 11.6679 84.4267 11.6026C84.6227 11.5279 84.8 11.3926 84.9587 11.1966C85.1174 10.9912 85.234 10.6926 85.3087 10.3006C85.3274 10.2446 85.3414 10.1652 85.3507 10.0626C85.3694 9.95991 85.374 9.84324 85.3647 9.71257C85.346 9.36724 85.2807 9.09191 85.1687 8.88657C85.066 8.67191 84.9354 8.51324 84.7767 8.41057C84.618 8.29857 84.4547 8.22391 84.2867 8.18657C84.128 8.13991 83.988 8.11657 83.8667 8.11657C83.6894 8.10724 83.526 8.10724 83.3767 8.11657C83.2367 8.11657 83.1294 8.11191 83.0547 8.10257C83.0454 8.10257 83.0314 8.05591 83.0127 7.96257C82.994 7.85991 82.9754 7.76191 82.9567 7.66857C82.938 7.57524 82.9287 7.52857 82.9287 7.52857ZM83.0687 7.52857V15.9286H81.0387V7.52857H83.0687ZM81.0807 15.0466L81.1367 15.9286H80.1287V15.7886C80.138 15.7886 80.1614 15.7886 80.1987 15.7886C80.2454 15.7886 80.278 15.7886 80.2967 15.7886C80.502 15.7886 80.6747 15.7186 80.8147 15.5786C80.964 15.4292 81.0434 15.2519 81.0527 15.0466H81.0807ZM81.0807 8.39657H81.0527C81.0434 8.18191 80.964 8.00924 80.8147 7.87857C80.6747 7.73857 80.5067 7.66857 80.3107 7.66857C80.2827 7.66857 80.2454 7.66857 80.1987 7.66857C80.1614 7.66857 80.138 7.66857 80.1287 7.66857V7.52857H81.1367L81.0807 8.39657ZM83.0407 15.0466H83.0687C83.0687 15.2799 83.148 15.4619 83.3067 15.5926C83.4747 15.7232 83.652 15.7886 83.8387 15.7886C83.8387 15.7886 83.8574 15.7886 83.8947 15.7886C83.932 15.7886 83.96 15.7886 83.9787 15.7886V15.9286H82.9707L83.0407 15.0466ZM93.4953 7.15057L97.6393 15.8586H95.2733L92.6693 9.71257L93.4953 7.15057ZM90.8633 15.0046C90.7606 15.2566 90.7746 15.4526 90.9053 15.5926C91.036 15.7232 91.1806 15.7886 91.3393 15.7886H91.4513V15.9286H88.6513V15.7886C88.6513 15.7886 88.67 15.7886 88.7073 15.7886C88.7446 15.7886 88.7633 15.7886 88.7633 15.7886C88.95 15.7886 89.146 15.7326 89.3513 15.6206C89.5566 15.4992 89.7246 15.2939 89.8553 15.0046H90.8633ZM93.4953 7.15057L93.5233 8.83057L90.4853 15.8866H89.4493L92.7253 8.84457C92.744 8.78857 92.786 8.69057 92.8513 8.55057C92.9166 8.40124 92.9866 8.23791 93.0613 8.06057C93.136 7.87391 93.206 7.70124 93.2713 7.54257C93.3366 7.37457 93.374 7.24391 93.3833 7.15057H93.4953ZM94.7133 13.1846V13.7306H91.1433V13.1846H94.7133ZM94.9233 15.0046H97.2333C97.3733 15.2939 97.546 15.4992 97.7513 15.6206C97.9566 15.7326 98.1526 15.7886 98.3393 15.7886C98.3393 15.7886 98.358 15.7886 98.3953 15.7886C98.4326 15.7886 98.4513 15.7886 98.4513 15.7886V15.9286H94.3353V15.7886H94.4473C94.606 15.7886 94.7506 15.7232 94.8813 15.5926C95.012 15.4526 95.026 15.2566 94.9233 15.0046ZM101.511 7.52857V15.9286H99.4951V7.52857H101.511ZM99.5371 15.0466V15.9286H98.5151V15.7886C98.5151 15.7886 98.5431 15.7886 98.5991 15.7886C98.6551 15.7886 98.6877 15.7886 98.6971 15.7886C98.9117 15.7886 99.0984 15.7186 99.2571 15.5786C99.4157 15.4292 99.4951 15.2519 99.4951 15.0466H99.5371ZM101.483 15.0466H101.511C101.52 15.2519 101.6 15.4292 101.749 15.5786C101.908 15.7186 102.099 15.7886 102.323 15.7886C102.323 15.7886 102.346 15.7886 102.393 15.7886C102.449 15.7886 102.482 15.7886 102.491 15.7886V15.9286H101.483V15.0466ZM101.483 8.41057V7.52857H102.491L102.477 7.66857C102.477 7.66857 102.454 7.66857 102.407 7.66857C102.36 7.66857 102.332 7.66857 102.323 7.66857C102.099 7.66857 101.908 7.73857 101.749 7.87857C101.6 8.01857 101.52 8.19591 101.511 8.41057H101.483ZM99.5371 8.41057H99.4951C99.4951 8.19591 99.4157 8.01857 99.2571 7.87857C99.0984 7.73857 98.9071 7.66857 98.6831 7.66857C98.6831 7.66857 98.6551 7.66857 98.5991 7.66857C98.5431 7.66857 98.5151 7.66857 98.5151 7.66857V7.52857H99.5371V8.41057ZM106.309 7.52857V15.9286H104.293V7.52857H106.309ZM109.571 15.3686L109.907 15.9286H106.281V15.3686H109.571ZM110.495 13.3526L109.949 15.9286H107.527L107.961 15.3686C108.362 15.3686 108.717 15.2892 109.025 15.1306C109.342 14.9626 109.613 14.7292 109.837 14.4306C110.061 14.1226 110.234 13.7632 110.355 13.3526H110.495ZM104.321 15.0466L104.391 15.9286H103.355V15.7886C103.355 15.7886 103.383 15.7886 103.439 15.7886C103.495 15.7886 103.528 15.7886 103.537 15.7886C103.742 15.7886 103.915 15.7186 104.055 15.5786C104.204 15.4292 104.284 15.2519 104.293 15.0466H104.321ZM106.281 8.41057V7.52857H107.247V7.66857C107.238 7.66857 107.205 7.66857 107.149 7.66857C107.102 7.66857 107.079 7.66857 107.079 7.66857C106.874 7.66857 106.696 7.73857 106.547 7.87857C106.398 8.01857 106.318 8.19591 106.309 8.41057H106.281ZM104.321 8.41057H104.293C104.284 8.19591 104.204 8.01857 104.055 7.87857C103.906 7.73857 103.728 7.66857 103.523 7.66857C103.514 7.66857 103.481 7.66857 103.425 7.66857C103.378 7.66857 103.355 7.66857 103.355 7.66857V7.52857H104.321V8.41057Z" fill="#EEEEEE"/>
</svg>
