<svg width="634" height="131" viewBox="0 0 634 131" fill="none" xmlns="http://www.w3.org/2000/svg">
<path d="M24.7084 67.6289L0 46.5057V94.9131L50.0938 130.705L91.3874 94.9131L75.4792 81.1243L50.0938 103.128L24.7084 81.1243V67.6289Z" fill="#E4AD00"/>
<path d="M24.7084 49.7328L8.80026 35.944L50.0938 0.151871L91.3874 35.944L75.4792 49.7328L59.571 35.944V71.7362L50.0938 79.9508L40.6166 71.7362V35.944L24.7084 49.7328Z" fill="#E4AD00"/>
<path d="M174.467 65.8178L175.187 79.5716C174.014 81.5441 172.441 83.3299 170.469 84.9292C168.496 86.5285 166.044 87.8346 163.112 88.8474C160.18 89.807 156.715 90.2868 152.717 90.2868C146.213 90.2335 140.509 89.0607 135.605 86.7684C130.753 84.4228 126.995 81.0909 124.33 76.7729C121.664 72.4548 120.332 67.2305 120.332 61.1C120.332 55.1293 121.638 49.985 124.25 45.6669C126.862 41.2955 130.594 37.9371 135.445 35.5915C140.349 33.2458 146.187 32.073 152.957 32.073C157.222 32.073 161.033 32.4995 164.392 33.3525C167.803 34.2054 170.655 35.2449 172.948 36.4711L173.028 50.1449H172.308C170.869 44.8673 168.523 41.109 165.271 38.87C162.019 36.5777 158.208 35.4315 153.836 35.4315C149.572 35.4315 145.92 36.4711 142.881 38.5501C139.843 40.6292 137.497 43.5612 135.845 47.3462C134.192 51.1311 133.366 55.6624 133.366 60.94C133.366 66.2176 134.139 70.7756 135.685 74.6139C137.284 78.4521 139.523 81.4375 142.402 83.5698C145.334 85.7022 148.772 86.8217 152.717 86.9283C156.822 86.9283 160.287 86.2619 163.112 84.9292C165.938 83.5965 168.203 81.3841 169.909 78.2922C171.668 75.2003 172.974 71.0421 173.827 65.8178H174.467ZM231.183 41.1889V89.1673H219.749V41.1889H231.183ZM198.638 41.1889V89.1673H187.123V41.1889H198.638ZM220.388 63.6588V66.8574H197.918V63.6588H220.388ZM187.363 84.1296V89.1673H181.846V88.3677C181.846 88.3677 181.979 88.3677 182.245 88.3677C182.565 88.3677 182.752 88.3677 182.805 88.3677C183.978 88.3677 184.991 87.9678 185.844 87.1682C186.697 86.3153 187.123 85.3024 187.123 84.1296H187.363ZM198.478 84.1296H198.638C198.691 85.3024 199.145 86.3153 199.997 87.1682C200.85 87.9678 201.863 88.3677 203.036 88.3677C203.036 88.3677 203.169 88.3677 203.436 88.3677C203.756 88.3677 203.916 88.3677 203.916 88.3677V89.1673H198.478V84.1296ZM198.478 46.2267V41.1889H203.916V41.9886C203.916 41.9886 203.756 41.9886 203.436 41.9886C203.169 41.9886 203.036 41.9886 203.036 41.9886C201.863 41.9886 200.85 42.3884 199.997 43.188C199.145 43.9877 198.691 45.0005 198.638 46.2267H198.478ZM187.363 46.2267H187.123C187.123 45.0005 186.697 43.9877 185.844 43.188C184.991 42.3884 183.978 41.9886 182.805 41.9886C182.752 41.9886 182.565 41.9886 182.245 41.9886C181.979 41.9886 181.846 41.9886 181.846 41.9886V41.1889H187.363V46.2267ZM219.908 84.1296V89.1673H214.471V88.3677C214.471 88.3677 214.604 88.3677 214.871 88.3677C215.191 88.3677 215.351 88.3677 215.351 88.3677C216.523 88.3677 217.536 87.9678 218.389 87.1682C219.242 86.3153 219.669 85.3024 219.669 84.1296H219.908ZM230.944 84.1296H231.183C231.237 85.3024 231.663 86.3153 232.463 87.1682C233.316 87.9678 234.355 88.3677 235.581 88.3677C235.581 88.3677 235.715 88.3677 235.981 88.3677C236.301 88.3677 236.461 88.3677 236.461 88.3677V89.1673H230.944V84.1296ZM231.023 46.2267V41.1889H236.541V41.9886C236.541 41.9886 236.381 41.9886 236.061 41.9886C235.741 41.9886 235.581 41.9886 235.581 41.9886C234.355 41.9886 233.316 42.3884 232.463 43.188C231.663 43.9877 231.263 45.0005 231.263 46.2267H231.023ZM219.908 46.2267H219.669C219.669 45.0005 219.242 43.9877 218.389 43.188C217.536 42.3884 216.523 41.9886 215.351 41.9886C215.351 41.9886 215.191 41.9886 214.871 41.9886C214.604 41.9886 214.471 41.9886 214.471 41.9886V41.1889H219.908V46.2267ZM264.686 39.0299L288.356 88.7675H274.842L259.969 53.6633L264.686 39.0299ZM249.653 83.8897C249.067 85.329 249.147 86.4485 249.893 87.2482C250.639 87.9945 251.466 88.3677 252.372 88.3677H253.012V89.1673H237.019V88.3677C237.019 88.3677 237.126 88.3677 237.339 88.3677C237.552 88.3677 237.659 88.3677 237.659 88.3677C238.725 88.3677 239.844 88.0478 241.017 87.4081C242.19 86.7151 243.149 85.5423 243.896 83.8897H249.653ZM264.686 39.0299L264.846 48.6256L247.494 88.9274H241.577L260.288 48.7055C260.395 48.3857 260.635 47.8259 261.008 47.0263C261.381 46.1733 261.781 45.2404 262.208 44.2276C262.634 43.1614 263.034 42.1752 263.407 41.2689C263.78 40.3093 263.993 39.563 264.047 39.0299H264.686ZM271.643 73.4944V76.613H251.252V73.4944H271.643ZM272.843 83.8897H286.037C286.836 85.5423 287.823 86.7151 288.995 87.4081C290.168 88.0478 291.288 88.3677 292.354 88.3677C292.354 88.3677 292.461 88.3677 292.674 88.3677C292.887 88.3677 292.994 88.3677 292.994 88.3677V89.1673H269.484V88.3677H270.124C271.03 88.3677 271.857 87.9945 272.603 87.2482C273.349 86.4485 273.429 85.329 272.843 83.8897ZM310.47 41.1889V89.1673H298.955V41.1889H310.47ZM299.195 84.1296V89.1673H293.358V88.3677C293.358 88.3677 293.518 88.3677 293.838 88.3677C294.158 88.3677 294.344 88.3677 294.397 88.3677C295.624 88.3677 296.69 87.9678 297.596 87.1682C298.502 86.3153 298.955 85.3024 298.955 84.1296H299.195ZM310.31 84.1296H310.47C310.523 85.3024 310.977 86.3153 311.83 87.1682C312.736 87.9678 313.829 88.3677 315.108 88.3677C315.108 88.3677 315.241 88.3677 315.508 88.3677C315.828 88.3677 316.014 88.3677 316.068 88.3677V89.1673H310.31V84.1296ZM310.31 46.2267V41.1889H316.068L315.988 41.9886C315.988 41.9886 315.854 41.9886 315.588 41.9886C315.321 41.9886 315.161 41.9886 315.108 41.9886C313.829 41.9886 312.736 42.3884 311.83 43.188C310.977 43.9877 310.523 45.0005 310.47 46.2267H310.31ZM299.195 46.2267H298.955C298.955 45.0005 298.502 43.9877 297.596 43.188C296.69 42.3884 295.597 41.9886 294.317 41.9886C294.317 41.9886 294.158 41.9886 293.838 41.9886C293.518 41.9886 293.358 41.9886 293.358 41.9886V41.1889H299.195V46.2267ZM326.028 40.0694L372.967 81.3308L373.767 90.2068L326.908 48.9454L326.028 40.0694ZM326.348 84.2895V89.1673H320.431V88.3677C320.431 88.3677 320.644 88.3677 321.07 88.3677C321.497 88.3677 321.71 88.3677 321.71 88.3677C322.936 88.3677 323.976 87.9945 324.829 87.2482C325.682 86.4485 326.108 85.4623 326.108 84.2895H326.348ZM337.063 84.2895C337.117 85.4623 337.57 86.4485 338.423 87.2482C339.276 87.9945 340.288 88.3677 341.461 88.3677C341.461 88.3677 341.674 88.3677 342.101 88.3677C342.581 88.3677 342.821 88.3677 342.821 88.3677V89.1673H336.903V84.2895H337.063ZM326.028 40.0694L337.063 52.064V89.1673H326.108V49.1853C326.108 46.4666 325.975 44.2809 325.708 42.6283C325.442 40.9224 325.308 40.0694 325.308 40.0694H326.028ZM373.687 41.1889V80.8511C373.687 82.7169 373.74 84.3695 373.847 85.8088C374.007 87.1949 374.14 88.2877 374.246 89.0873C374.406 89.8337 374.486 90.2068 374.486 90.2068H373.767L362.732 77.4926V41.1889H373.687ZM373.447 46.0667V41.1889H379.444V41.9886C379.444 41.9886 379.204 41.9886 378.724 41.9886C378.298 41.9886 378.085 41.9886 378.085 41.9886C376.912 41.9886 375.872 42.3884 374.966 43.188C374.113 43.9344 373.687 44.8939 373.687 46.0667H373.447ZM362.732 46.0667C362.678 44.8939 362.225 43.9344 361.372 43.188C360.573 42.3884 359.56 41.9886 358.334 41.9886C358.334 41.9886 358.094 41.9886 357.614 41.9886C357.187 41.9886 356.974 41.9886 356.974 41.9886V41.1889H362.892V46.0667H362.732ZM433.763 33.4324V89.1673H421.769V33.4324H433.763ZM453.355 33.1126V36.4711H402.178V33.1126H453.355ZM453.355 36.2312V45.6669L452.555 45.5869V44.7073C452.555 42.2018 451.809 40.2294 450.316 38.79C448.877 37.2973 446.904 36.5244 444.399 36.4711V36.2312H453.355ZM453.355 31.6732V33.9922L443.599 33.1126C444.772 33.1126 445.998 33.0326 447.277 32.8727C448.61 32.7127 449.836 32.5262 450.956 32.3129C452.075 32.0997 452.875 31.8865 453.355 31.6732ZM422.009 83.3299V89.1673H415.612V88.3677C415.612 88.3677 415.771 88.3677 416.091 88.3677C416.464 88.3677 416.651 88.3677 416.651 88.3677C418.037 88.3677 419.21 87.8879 420.169 86.9283C421.182 85.9154 421.715 84.716 421.769 83.3299H422.009ZM433.523 83.3299H433.763C433.817 84.716 434.323 85.9154 435.283 86.9283C436.296 87.8879 437.495 88.3677 438.881 88.3677C438.881 88.3677 439.041 88.3677 439.361 88.3677C439.734 88.3677 439.921 88.3677 439.921 88.3677V89.1673H433.523V83.3299ZM411.054 36.2312V36.4711C408.601 36.5244 406.629 37.2973 405.136 38.79C403.697 40.2294 402.977 42.2018 402.977 44.7073V45.5869L402.178 45.6669V36.2312H411.054ZM402.178 31.6732C402.711 31.8865 403.51 32.0997 404.577 32.3129C405.696 32.5262 406.922 32.7127 408.255 32.8727C409.588 33.0326 410.814 33.1126 411.933 33.1126L402.178 33.9922V31.6732ZM473.665 41.1889H482.301C484.487 41.1889 486.619 41.4288 488.698 41.9086C490.777 42.3351 492.643 43.0548 494.295 44.0676C495.948 45.0272 497.254 46.3599 498.214 48.0658C499.227 49.7184 499.733 51.7975 499.733 54.303C499.733 56.1688 499.333 58.0347 498.534 59.9005C497.787 61.713 496.588 63.2856 494.935 64.6184C493.336 65.9511 491.23 66.8307 488.618 67.2572C490.164 67.737 491.63 68.6699 493.016 70.0559C494.455 71.442 495.575 72.748 496.375 73.9742C496.588 74.4006 496.961 75.0936 497.494 76.0532C498.027 76.9595 498.693 78.0257 499.493 79.2518C500.346 80.4246 501.226 81.6507 502.132 82.9301C503.198 84.3695 504.131 85.489 504.931 86.2886C505.73 87.0349 506.557 87.568 507.41 87.8879C508.262 88.2077 509.249 88.3677 510.368 88.3677V89.1673H503.651C500.773 89.1673 498.32 88.9541 496.295 88.5276C494.322 88.1011 492.59 87.3281 491.097 86.2086C489.658 85.0358 488.325 83.4632 487.099 81.4908C486.619 80.7977 486.112 79.9714 485.579 79.0119C485.046 77.999 484.513 76.9861 483.98 75.9733C483.447 74.9604 482.967 73.9742 482.541 73.0146C482.168 72.055 481.901 71.2554 481.741 70.6157C481.048 68.9098 480.248 67.6837 479.342 66.9373C478.489 66.1377 477.69 65.7379 476.943 65.7379V65.0182C476.943 65.0182 477.13 65.0182 477.503 65.0182C477.876 65.0182 478.356 65.0182 478.942 65.0182C480.062 65.0182 481.155 64.8316 482.221 64.4584C483.34 64.032 484.353 63.259 485.26 62.1395C486.166 60.9667 486.832 59.2608 487.259 57.0218C487.365 56.7019 487.445 56.2488 487.499 55.6624C487.605 55.076 487.632 54.4096 487.578 53.6633C487.472 51.6909 487.099 50.1182 486.459 48.9454C485.873 47.7193 485.126 46.8131 484.22 46.2267C483.314 45.5869 482.381 45.1605 481.421 44.9472C480.515 44.6807 479.715 44.5474 479.022 44.5474C478.009 44.4941 477.077 44.4941 476.224 44.5474C475.424 44.5474 474.811 44.5208 474.384 44.4675C474.331 44.4675 474.251 44.2009 474.145 43.6678C474.038 43.0814 473.931 42.5217 473.825 41.9886C473.718 41.4555 473.665 41.1889 473.665 41.1889ZM474.464 41.1889V89.1673H462.87V41.1889H474.464ZM463.11 84.1296L463.429 89.1673H457.672V88.3677C457.725 88.3677 457.859 88.3677 458.072 88.3677C458.338 88.3677 458.525 88.3677 458.632 88.3677C459.804 88.3677 460.791 87.9678 461.59 87.1682C462.443 86.3153 462.896 85.3024 462.95 84.1296H463.11ZM463.11 46.1467H462.95C462.896 44.9206 462.443 43.9344 461.59 43.188C460.791 42.3884 459.831 41.9886 458.711 41.9886C458.552 41.9886 458.338 41.9886 458.072 41.9886C457.859 41.9886 457.725 41.9886 457.672 41.9886V41.1889H463.429L463.11 46.1467ZM474.304 84.1296H474.464C474.464 85.4623 474.918 86.5018 475.824 87.2482C476.783 87.9945 477.796 88.3677 478.862 88.3677C478.862 88.3677 478.969 88.3677 479.182 88.3677C479.395 88.3677 479.555 88.3677 479.662 88.3677V89.1673H473.905L474.304 84.1296ZM534.018 39.0299L557.688 88.7675H544.174L529.3 53.6633L534.018 39.0299ZM518.985 83.8897C518.399 85.329 518.479 86.4485 519.225 87.2482C519.971 87.9945 520.797 88.3677 521.704 88.3677H522.343V89.1673H506.351V88.3677C506.351 88.3677 506.457 88.3677 506.671 88.3677C506.884 88.3677 506.99 88.3677 506.99 88.3677C508.057 88.3677 509.176 88.0478 510.349 87.4081C511.522 86.7151 512.481 85.5423 513.228 83.8897H518.985ZM534.018 39.0299L534.178 48.6256L516.826 88.9274H510.909L529.62 48.7055C529.727 48.3857 529.967 47.8259 530.34 47.0263C530.713 46.1733 531.113 45.2404 531.539 44.2276C531.966 43.1614 532.366 42.1752 532.739 41.2689C533.112 40.3093 533.325 39.563 533.378 39.0299H534.018ZM540.975 73.4944V76.613H520.584V73.4944H540.975ZM542.175 83.8897H555.369C556.168 85.5423 557.154 86.7151 558.327 87.4081C559.5 88.0478 560.62 88.3677 561.686 88.3677C561.686 88.3677 561.792 88.3677 562.006 88.3677C562.219 88.3677 562.325 88.3677 562.325 88.3677V89.1673H538.816V88.3677H539.456C540.362 88.3677 541.188 87.9945 541.935 87.2482C542.681 86.4485 542.761 85.329 542.175 83.8897ZM579.802 41.1889V89.1673H568.287V41.1889H579.802ZM568.527 84.1296V89.1673H562.69V88.3677C562.69 88.3677 562.85 88.3677 563.169 88.3677C563.489 88.3677 563.676 88.3677 563.729 88.3677C564.955 88.3677 566.021 87.9678 566.928 87.1682C567.834 86.3153 568.287 85.3024 568.287 84.1296H568.527ZM579.642 84.1296H579.802C579.855 85.3024 580.308 86.3153 581.161 87.1682C582.068 87.9678 583.16 88.3677 584.44 88.3677C584.44 88.3677 584.573 88.3677 584.84 88.3677C585.16 88.3677 585.346 88.3677 585.399 88.3677V89.1673H579.642V84.1296ZM579.642 46.2267V41.1889H585.399L585.319 41.9886C585.319 41.9886 585.186 41.9886 584.92 41.9886C584.653 41.9886 584.493 41.9886 584.44 41.9886C583.16 41.9886 582.068 42.3884 581.161 43.188C580.308 43.9877 579.855 45.0005 579.802 46.2267H579.642ZM568.527 46.2267H568.287C568.287 45.0005 567.834 43.9877 566.928 43.188C566.021 42.3884 564.929 41.9886 563.649 41.9886C563.649 41.9886 563.489 41.9886 563.169 41.9886C562.85 41.9886 562.69 41.9886 562.69 41.9886V41.1889H568.527V46.2267ZM607.206 41.1889V89.1673H595.691V41.1889H607.206ZM625.837 85.9687L627.757 89.1673H607.046V85.9687H625.837ZM631.115 74.4539L627.996 89.1673H614.163L616.642 85.9687C618.934 85.9687 620.96 85.5156 622.719 84.6094C624.531 83.6498 626.077 82.3171 627.357 80.6112C628.636 78.852 629.622 76.7995 630.315 74.4539H631.115ZM595.851 84.1296L596.251 89.1673H590.333V88.3677C590.333 88.3677 590.493 88.3677 590.813 88.3677C591.133 88.3677 591.32 88.3677 591.373 88.3677C592.546 88.3677 593.532 87.9678 594.332 87.1682C595.185 86.3153 595.638 85.3024 595.691 84.1296H595.851ZM607.046 46.2267V41.1889H612.563V41.9886C612.51 41.9886 612.324 41.9886 612.004 41.9886C611.737 41.9886 611.604 41.9886 611.604 41.9886C610.431 41.9886 609.418 42.3884 608.565 43.188C607.712 43.9877 607.259 45.0005 607.206 46.2267H607.046ZM595.851 46.2267H595.691C595.638 45.0005 595.185 43.9877 594.332 43.188C593.479 42.3884 592.466 41.9886 591.293 41.9886C591.24 41.9886 591.053 41.9886 590.733 41.9886C590.467 41.9886 590.333 41.9886 590.333 41.9886V41.1889H595.851V46.2267Z" fill="#EEEEEE"/>
</svg>
