<svg width="270" height="172" viewBox="0 0 270 172" fill="none" xmlns="http://www.w3.org/2000/svg">
<g filter="url(#filter0_dddd_253_936)">
<g filter="url(#filter1_dddd_253_936)">
<path d="M43 49C39.2288 49 37.3431 49 36.1716 47.8284C35 46.6569 35 44.7712 35 41V26.5192C35 24.3674 35 23.2915 35.4952 22.3912C35.9904 21.4909 36.899 20.9148 38.7164 19.7627L56.8853 8.24349C57.8594 7.62594 58.3464 7.31716 58.8927 7.15858C59.439 7 60.0156 7 61.1689 7H227C230.771 7 232.657 7 233.828 8.17157C235 9.34315 235 11.2288 235 15V28.6822C235 30.834 235 31.9099 234.505 32.8102C234.01 33.7105 233.101 34.2865 231.284 35.4387L211.855 47.7565C210.881 48.3741 210.394 48.6828 209.848 48.8414C209.301 49 208.725 49 207.571 49H43Z" fill="#E4AD00"/>
</g>
<path d="M104.017 30.3213C104.404 30.54 104.796 30.7383 105.192 30.916C105.593 31.0892 106.008 31.2373 106.437 31.3604C106.865 31.4788 107.314 31.57 107.783 31.6338C108.257 31.6976 108.761 31.7295 109.294 31.7295C109.937 31.7295 110.483 31.6885 110.935 31.6064C111.386 31.5199 111.753 31.4036 112.035 31.2578C112.322 31.1074 112.53 30.9297 112.657 30.7246C112.789 30.5195 112.855 30.2962 112.855 30.0547C112.855 29.6673 112.694 29.362 112.37 29.1387C112.047 28.9108 111.548 28.7969 110.873 28.7969C110.577 28.7969 110.265 28.8174 109.937 28.8584C109.608 28.8949 109.276 28.9359 108.938 28.9814C108.606 29.027 108.275 29.0703 107.947 29.1113C107.624 29.1478 107.318 29.166 107.031 29.166C106.553 29.166 106.092 29.1045 105.65 28.9814C105.213 28.8584 104.823 28.6738 104.481 28.4277C104.144 28.1816 103.875 27.874 103.675 27.5049C103.474 27.1357 103.374 26.7051 103.374 26.2129C103.374 25.9212 103.413 25.6318 103.49 25.3447C103.572 25.0576 103.7 24.7842 103.873 24.5244C104.051 24.2601 104.279 24.0163 104.557 23.793C104.835 23.5651 105.17 23.3691 105.562 23.2051C105.958 23.041 106.414 22.9134 106.929 22.8223C107.448 22.7266 108.038 22.6787 108.699 22.6787C109.178 22.6787 109.659 22.7061 110.142 22.7607C110.625 22.8109 111.094 22.8838 111.55 22.9795C112.01 23.0752 112.452 23.1914 112.876 23.3281C113.3 23.4603 113.694 23.6084 114.059 23.7725L113.108 25.5225C112.808 25.3903 112.484 25.2695 112.138 25.1602C111.791 25.0462 111.429 24.9482 111.051 24.8662C110.673 24.7842 110.281 24.7204 109.875 24.6748C109.474 24.6247 109.064 24.5996 108.645 24.5996C108.048 24.5996 107.555 24.6429 107.168 24.7295C106.785 24.8161 106.48 24.9277 106.252 25.0645C106.024 25.1966 105.865 25.347 105.773 25.5156C105.687 25.6797 105.644 25.8438 105.644 26.0078C105.644 26.3268 105.787 26.5889 106.074 26.7939C106.361 26.9945 106.799 27.0947 107.387 27.0947C107.624 27.0947 107.895 27.0788 108.2 27.0469C108.51 27.0104 108.834 26.9717 109.171 26.9307C109.513 26.8896 109.859 26.8532 110.21 26.8213C110.565 26.7848 110.91 26.7666 111.242 26.7666C111.871 26.7666 112.427 26.8372 112.91 26.9785C113.398 27.1198 113.806 27.3226 114.134 27.5869C114.462 27.8467 114.71 28.1634 114.879 28.5371C115.048 28.9062 115.132 29.321 115.132 29.7812C115.132 30.3965 114.988 30.9456 114.701 31.4287C114.419 31.9072 114.013 32.3128 113.484 32.6455C112.96 32.9736 112.327 33.2243 111.584 33.3975C110.841 33.5661 110.014 33.6504 109.103 33.6504C108.501 33.6504 107.913 33.6117 107.339 33.5342C106.765 33.4613 106.213 33.3564 105.685 33.2197C105.16 33.0785 104.659 32.9121 104.181 32.7207C103.707 32.5247 103.267 32.3105 102.861 32.0781L104.017 30.3213ZM117.511 22.8154H119.678V25.6045H126.322V22.8154H128.496V33.5H126.322V27.457H119.678V33.5H117.511V22.8154ZM135.175 22.8154H137.472L142.64 33.5H140.363L139.509 31.7021H133.268L132.44 33.5H130.157L135.175 22.8154ZM138.654 29.918L136.344 25.0645L134.095 29.918H138.654ZM144.301 22.8154H149.735C150.556 22.8154 151.267 22.902 151.868 23.0752C152.47 23.2438 152.969 23.4899 153.365 23.8135C153.762 24.137 154.056 24.5312 154.247 24.9961C154.443 25.4609 154.541 25.9873 154.541 26.5752C154.541 26.9717 154.493 27.3499 154.397 27.71C154.302 28.0654 154.154 28.3936 153.953 28.6943C153.757 28.9951 153.509 29.264 153.208 29.501C152.907 29.7334 152.554 29.9271 152.148 30.082L154.473 33.5H151.82L149.811 30.4648H149.749L146.468 30.458V33.5H144.301V22.8154ZM149.79 28.585C150.2 28.585 150.558 28.5371 150.863 28.4414C151.173 28.3457 151.431 28.2113 151.636 28.0381C151.845 27.8649 152 27.6553 152.101 27.4092C152.205 27.1585 152.258 26.8805 152.258 26.5752C152.258 25.9782 152.053 25.5179 151.643 25.1943C151.232 24.8662 150.615 24.7021 149.79 24.7021H146.468V28.585H149.79ZM157.111 22.8154H166.21V24.7158H159.278V26.8486H165.417V28.6328H159.278V31.6064H166.354V33.5H157.111V22.8154Z" fill="#090909"/>
</g>
<defs>
<filter id="filter0_dddd_253_936" x="26" y="5" width="218" height="75" filterUnits="userSpaceOnUse" color-interpolation-filters="sRGB">
<feFlood flood-opacity="0" result="BackgroundImageFix"/>
<feColorMatrix in="SourceAlpha" type="matrix" values="0 0 0 0 0 0 0 0 0 0 0 0 0 0 0 0 0 0 127 0" result="hardAlpha"/>
<feOffset dy="1"/>
<feGaussianBlur stdDeviation="1.5"/>
<feColorMatrix type="matrix" values="0 0 0 0 0.807843 0 0 0 0 0.611765 0 0 0 0 0.00392157 0 0 0 0.1 0"/>
<feBlend mode="normal" in2="BackgroundImageFix" result="effect1_dropShadow_253_936"/>
<feColorMatrix in="SourceAlpha" type="matrix" values="0 0 0 0 0 0 0 0 0 0 0 0 0 0 0 0 0 0 127 0" result="hardAlpha"/>
<feOffset dy="5"/>
<feGaussianBlur stdDeviation="2.5"/>
<feColorMatrix type="matrix" values="0 0 0 0 0.807843 0 0 0 0 0.611765 0 0 0 0 0.00392157 0 0 0 0.09 0"/>
<feBlend mode="normal" in2="effect1_dropShadow_253_936" result="effect2_dropShadow_253_936"/>
<feColorMatrix in="SourceAlpha" type="matrix" values="0 0 0 0 0 0 0 0 0 0 0 0 0 0 0 0 0 0 127 0" result="hardAlpha"/>
<feOffset dy="12"/>
<feGaussianBlur stdDeviation="3.5"/>
<feColorMatrix type="matrix" values="0 0 0 0 0.807843 0 0 0 0 0.611765 0 0 0 0 0.00392157 0 0 0 0.05 0"/>
<feBlend mode="normal" in2="effect2_dropShadow_253_936" result="effect3_dropShadow_253_936"/>
<feColorMatrix in="SourceAlpha" type="matrix" values="0 0 0 0 0 0 0 0 0 0 0 0 0 0 0 0 0 0 127 0" result="hardAlpha"/>
<feOffset dy="22"/>
<feGaussianBlur stdDeviation="4.5"/>
<feColorMatrix type="matrix" values="0 0 0 0 0.807843 0 0 0 0 0.611765 0 0 0 0 0.00392157 0 0 0 0.01 0"/>
<feBlend mode="normal" in2="effect3_dropShadow_253_936" result="effect4_dropShadow_253_936"/>
<feBlend mode="normal" in="SourceGraphic" in2="effect4_dropShadow_253_936" result="shape"/>
</filter>
<filter id="filter1_dddd_253_936" x="0" y="0" width="270" height="172" filterUnits="userSpaceOnUse" color-interpolation-filters="sRGB">
<feFlood flood-opacity="0" result="BackgroundImageFix"/>
<feColorMatrix in="SourceAlpha" type="matrix" values="0 0 0 0 0 0 0 0 0 0 0 0 0 0 0 0 0 0 127 0" result="hardAlpha"/>
<feOffset dy="5"/>
<feGaussianBlur stdDeviation="6"/>
<feColorMatrix type="matrix" values="0 0 0 0 0.807843 0 0 0 0 0.611765 0 0 0 0 0.00392157 0 0 0 0.1 0"/>
<feBlend mode="normal" in2="BackgroundImageFix" result="effect1_dropShadow_253_936"/>
<feColorMatrix in="SourceAlpha" type="matrix" values="0 0 0 0 0 0 0 0 0 0 0 0 0 0 0 0 0 0 127 0" result="hardAlpha"/>
<feOffset dy="22"/>
<feGaussianBlur stdDeviation="11"/>
<feColorMatrix type="matrix" values="0 0 0 0 0.807843 0 0 0 0 0.611765 0 0 0 0 0.00392157 0 0 0 0.09 0"/>
<feBlend mode="normal" in2="effect1_dropShadow_253_936" result="effect2_dropShadow_253_936"/>
<feColorMatrix in="SourceAlpha" type="matrix" values="0 0 0 0 0 0 0 0 0 0 0 0 0 0 0 0 0 0 127 0" result="hardAlpha"/>
<feOffset dy="49"/>
<feGaussianBlur stdDeviation="15"/>
<feColorMatrix type="matrix" values="0 0 0 0 0.807843 0 0 0 0 0.611765 0 0 0 0 0.00392157 0 0 0 0.05 0"/>
<feBlend mode="normal" in2="effect2_dropShadow_253_936" result="effect3_dropShadow_253_936"/>
<feColorMatrix in="SourceAlpha" type="matrix" values="0 0 0 0 0 0 0 0 0 0 0 0 0 0 0 0 0 0 127 0" result="hardAlpha"/>
<feOffset dy="88"/>
<feGaussianBlur stdDeviation="17.5"/>
<feColorMatrix type="matrix" values="0 0 0 0 0.807843 0 0 0 0 0.611765 0 0 0 0 0.00392157 0 0 0 0.01 0"/>
<feBlend mode="normal" in2="effect3_dropShadow_253_936" result="effect4_dropShadow_253_936"/>
<feBlend mode="normal" in="SourceGraphic" in2="effect4_dropShadow_253_936" result="shape"/>
</filter>
</defs>
</svg>
